<svg width="24415" height="2998" viewBox="0 0 24415 2998" fill="none" xmlns="http://www.w3.org/2000/svg">
<path d="M338.467 2952V316.521H1871.08V571.322H635.101V1457.42H1730.37V1712.22H635.101V2952H338.467ZM2321.23 2952V982.046H2606.45V2952H2321.23ZM2465.74 510.474C2409.96 510.474 2361.79 491.459 2321.23 453.429C2283.2 415.399 2264.18 364.692 2264.18 301.309C2264.18 240.461 2283.2 191.022 2321.23 152.992C2361.79 114.962 2409.96 95.9468 2465.74 95.9468C2521.52 95.9468 2568.42 114.962 2606.45 152.992C2647.02 191.022 2667.3 240.461 2667.3 301.309C2667.3 364.692 2647.02 415.399 2606.45 453.429C2568.42 491.459 2521.52 510.474 2465.74 510.474ZM3245.98 2952V1050.5C3324.57 1030.22 3427.26 1007.4 3554.02 982.046C3680.79 956.693 3832.91 944.016 4010.38 944.016C4215.74 944.016 4375.47 982.046 4489.56 1058.11C4603.65 1134.17 4683.51 1240.65 4729.15 1377.56C4777.32 1511.93 4801.41 1669.12 4801.41 1849.13V2952H4516.18V1928.99C4516.18 1748.98 4499.7 1605.74 4466.74 1499.25C4433.78 1392.77 4378.01 1315.44 4299.41 1267.27C4220.82 1219.1 4111.8 1195.01 3972.35 1195.01C3865.87 1195.01 3772.06 1201.35 3690.93 1214.03C3609.8 1226.71 3556.56 1236.85 3531.2 1244.45V2952H3245.98ZM6015.66 2993.83C5873.68 2993.83 5746.92 2973.55 5635.36 2932.98C5523.81 2892.42 5436.34 2826.5 5372.96 2735.23C5309.57 2643.96 5277.88 2523.53 5277.88 2373.94C5277.88 2229.43 5313.38 2112.8 5384.36 2024.07C5455.35 1932.8 5552.96 1866.88 5677.2 1826.31C5803.96 1785.75 5945.94 1765.46 6103.13 1765.46C6174.12 1765.46 6248.91 1771.8 6327.51 1784.48C6406.1 1797.16 6455.54 1808.56 6475.83 1818.71V1704.62C6475.83 1618.41 6464.42 1536.02 6441.6 1457.42C6421.32 1376.29 6378.22 1310.37 6312.3 1259.66C6246.38 1208.96 6146.23 1183.6 6011.86 1183.6C5872.42 1183.6 5765.93 1193.75 5692.41 1214.03C5618.88 1234.31 5564.37 1250.79 5528.88 1263.47L5490.85 1020.08C5536.48 999.793 5606.21 980.778 5700.01 963.031C5793.82 945.284 5904.11 936.41 6030.87 936.41C6210.88 936.41 6352.86 968.102 6456.81 1031.49C6563.29 1094.87 6639.35 1182.34 6684.99 1293.89C6733.16 1402.91 6757.25 1528.41 6757.25 1670.39V2906.36C6704.01 2919.04 6608.93 2936.79 6472.02 2959.61C6335.11 2982.42 6182.99 2993.83 6015.66 2993.83ZM6057.5 2750.44C6146.23 2750.44 6226.1 2747.91 6297.08 2742.83C6368.07 2735.23 6427.65 2726.36 6475.83 2716.21V2054.49C6450.47 2041.82 6407.37 2029.14 6346.52 2016.46C6285.68 2003.79 6207.08 1997.45 6110.74 1997.45C6029.61 1997.45 5947.21 2006.32 5863.54 2024.07C5779.88 2041.82 5708.89 2077.31 5650.57 2130.55C5594.8 2183.79 5566.91 2263.66 5566.91 2370.14C5566.91 2512.12 5611.28 2611 5700.01 2666.77C5788.75 2722.55 5907.91 2750.44 6057.5 2750.44ZM7372.09 2952V1050.5C7450.68 1030.22 7553.36 1007.4 7680.13 982.046C7806.9 956.693 7959.02 944.016 8136.49 944.016C8341.85 944.016 8501.58 982.046 8615.67 1058.11C8729.76 1134.17 8809.62 1240.65 8855.26 1377.56C8903.43 1511.93 8927.51 1669.12 8927.51 1849.13V2952H8642.29V1928.99C8642.29 1748.98 8625.81 1605.74 8592.85 1499.25C8559.89 1392.77 8504.11 1315.44 8425.52 1267.27C8346.92 1219.1 8237.9 1195.01 8098.46 1195.01C7991.97 1195.01 7898.17 1201.35 7817.04 1214.03C7735.91 1226.71 7682.66 1236.85 7657.31 1244.45V2952H7372.09ZM10373.8 2993.83C10165.9 2993.83 9992.18 2952 9852.74 2868.33C9713.3 2782.13 9608.08 2661.7 9537.09 2507.05C9466.1 2352.39 9430.61 2173.65 9430.61 1970.83C9430.61 1765.46 9467.37 1585.46 9540.9 1430.8C9614.42 1276.14 9719.64 1155.72 9856.54 1069.51C9995.99 980.778 10160.8 936.41 10350.9 936.41C10454.9 936.41 10553.8 945.284 10647.6 963.031C10741.4 980.778 10814.9 1003.6 10868.1 1031.49L10795.9 1271.07C10745.2 1248.26 10688.1 1229.24 10624.8 1214.03C10561.4 1198.82 10477.7 1191.21 10373.8 1191.21C10163.3 1191.21 10002.3 1259.66 9890.77 1396.57C9781.75 1533.48 9727.24 1724.9 9727.24 1970.83C9727.24 2122.95 9750.06 2257.32 9795.7 2373.94C9841.33 2488.03 9914.86 2578.04 10016.3 2643.96C10117.7 2707.34 10252.1 2739.03 10419.4 2739.03C10518.3 2739.03 10604.5 2727.62 10678 2704.8C10754.1 2681.99 10809.8 2661.7 10845.3 2643.96L10902.4 2887.35C10854.2 2912.7 10780.7 2936.79 10681.8 2959.61C10582.9 2982.42 10480.2 2993.83 10373.8 2993.83ZM12164.6 2993.83C11933.9 2993.83 11746.3 2949.46 11601.8 2860.73C11459.8 2771.99 11354.6 2650.3 11286.1 2495.64C11220.2 2340.98 11187.3 2164.78 11187.3 1967.02C11187.3 1736.31 11229.1 1544.89 11312.8 1392.77C11396.4 1240.65 11504.2 1126.56 11636 1050.5C11770.4 974.44 11911.1 936.41 12058.2 936.41C12223 936.41 12364.9 971.905 12484.1 1042.89C12605.8 1111.35 12699.6 1217.83 12765.5 1362.35C12831.4 1504.32 12864.4 1685.6 12864.4 1906.17C12864.4 1923.92 12863.1 1945.47 12860.6 1970.83C12860.6 1993.64 12859.3 2015.19 12856.8 2035.48H11483.9C11494 2258.59 11553.6 2432.26 11662.6 2556.49C11774.2 2678.18 11946.6 2739.03 12179.9 2739.03C12309.2 2739.03 12414.4 2727.62 12495.5 2704.8C12579.2 2679.45 12638.7 2657.9 12674.2 2640.15L12723.7 2879.74C12688.2 2900.03 12618.5 2924.11 12514.5 2952C12413.1 2979.89 12296.5 2993.83 12164.6 2993.83ZM11491.5 1803.49H12575.4C12572.8 1674.19 12551.3 1563.9 12510.7 1472.63C12470.1 1378.83 12411.8 1307.84 12335.8 1259.66C12262.2 1208.96 12171 1183.6 12062 1183.6C11950.4 1183.6 11852.8 1212.76 11769.1 1271.07C11685.5 1329.39 11619.5 1405.45 11571.4 1499.25C11525.7 1593.06 11499.1 1694.47 11491.5 1803.49ZM13418.7 2952V316.521H14951.3V571.322H13715.3V1457.42H14810.6V1712.22H13715.3V2952H13418.7ZM15933.9 2986.23C15812.2 2981.16 15710.8 2960.87 15629.6 2925.38C15551.1 2889.88 15492.7 2835.37 15454.7 2761.85C15416.7 2685.79 15397.7 2584.38 15397.7 2457.61V50.311L15682.9 0.871913V2438.59C15682.9 2560.29 15704.4 2638.89 15747.5 2674.38C15793.2 2709.88 15869.2 2735.23 15975.7 2750.44L15933.9 2986.23ZM17187.8 2997.64C17012.9 2997.64 16856.9 2955.8 16720 2872.14C16583.1 2785.94 16475.4 2665.51 16396.8 2510.85C16320.7 2356.2 16282.7 2174.92 16282.7 1967.02C16282.7 1759.13 16320.7 1579.12 16396.8 1427C16475.4 1272.34 16583.1 1151.91 16720 1065.71C16856.9 979.511 17012.9 936.41 17187.8 936.41C17365.3 936.41 17522.5 979.511 17659.4 1065.71C17796.3 1151.91 17902.8 1272.34 17978.8 1427C18057.4 1579.12 18096.7 1759.13 18096.7 1967.02C18096.7 2174.92 18057.4 2356.2 17978.8 2510.85C17902.8 2665.51 17796.3 2785.94 17659.4 2872.14C17525 2955.8 17367.8 2997.64 17187.8 2997.64ZM17187.8 2742.83C17314.6 2742.83 17423.6 2711.14 17514.9 2647.76C17606.1 2584.38 17675.9 2494.37 17724 2377.75C17774.7 2261.12 17800.1 2124.21 17800.1 1967.02C17800.1 1809.83 17774.7 1672.92 17724 1556.3C17675.9 1439.67 17606.1 1349.67 17514.9 1286.29C17423.6 1222.9 17314.6 1191.21 17187.8 1191.21C17063.6 1191.21 16955.8 1222.9 16864.6 1286.29C16773.3 1349.67 16702.3 1439.67 16651.6 1556.3C16603.4 1672.92 16579.3 1809.83 16579.3 1967.02C16579.3 2124.21 16603.4 2261.12 16651.6 2377.75C16702.3 2494.37 16773.3 2584.38 16864.6 2647.76C16955.8 2711.14 17063.6 2742.83 17187.8 2742.83ZM19036 2952C18975.2 2812.56 18915.6 2668.04 18857.3 2518.46C18799 2368.87 18741.9 2212.95 18686.1 2050.69C18630.4 1885.89 18577.1 1714.76 18526.4 1537.28C18475.7 1359.81 18427.5 1174.73 18381.9 982.046H18682.3C18710.2 1111.35 18743.2 1250.79 18781.2 1400.38C18821.8 1549.96 18864.9 1699.55 18910.5 1849.13C18956.1 1998.71 19001.8 2140.69 19047.4 2275.07C19095.6 2409.44 19140 2526.06 19180.5 2624.94C19243.9 2457.61 19306 2277.6 19366.9 2084.92C19427.7 1892.23 19483.5 1700.81 19534.2 1510.66C19587.4 1320.51 19631.8 1144.31 19667.3 982.046H19903.1C19936 1144.31 19977.9 1321.78 20028.6 1514.47C20079.3 1704.62 20135.1 1896.03 20195.9 2088.72C20259.3 2281.4 20322.7 2461.41 20386.1 2628.74C20429.2 2529.87 20473.5 2413.24 20519.2 2278.87C20564.8 2144.5 20610.4 2002.52 20656.1 1852.93C20701.7 1700.81 20743.6 1549.96 20781.6 1400.38C20822.1 1250.79 20856.4 1111.35 20884.3 982.046H21169.5C21121.3 1174.73 21071.9 1359.81 21021.2 1537.28C20970.5 1714.76 20917.2 1885.89 20861.4 2050.69C20808.2 2212.95 20752.4 2368.87 20694.1 2518.46C20635.8 2668.04 20575 2812.56 20511.6 2952H20256.8C20208.6 2832.84 20156.6 2697.2 20100.8 2545.08C20045.1 2392.96 19988 2229.43 19929.7 2054.49C19873.9 1879.55 19822 1700.81 19773.8 1518.27C19728.2 1700.81 19676.2 1879.55 19617.9 2054.49C19562.1 2229.43 19506.3 2392.96 19450.5 2545.08C19394.8 2697.2 19342.8 2832.84 19294.6 2952H19036Z" fill="white" fill-opacity="0.7"/>
</svg>
