<svg width="202" height="30" viewBox="0 0 202 30" fill="none" xmlns="http://www.w3.org/2000/svg">
<path d="M12.4648 16.9336H5.15234V24H1.84766V6.9375H13.3789V9.62109H5.15234V14.2617H12.4648V16.9336ZM17.0352 11.3203H23.9375V21.3516H27.3711V24H17.0352V21.3516H20.6445V13.9805H17.0352V11.3203ZM20.4102 8.07422C20.4102 7.82422 20.4531 7.59375 20.5391 7.38281C20.6328 7.16406 20.7617 6.97656 20.9258 6.82031C21.0898 6.67187 21.2852 6.55469 21.5117 6.46875C21.7461 6.38281 22.0039 6.33984 22.2852 6.33984C22.8633 6.33984 23.3203 6.50391 23.6562 6.83203C24 7.15234 24.1719 7.56641 24.1719 8.07422C24.1719 8.58203 24 9 23.6562 9.32812C23.3203 9.64844 22.8633 9.80859 22.2852 9.80859C22.0039 9.80859 21.7461 9.76562 21.5117 9.67969C21.2852 9.59375 21.0898 9.47266 20.9258 9.31641C20.7617 9.16797 20.6328 8.98828 20.5391 8.77734C20.4531 8.55859 20.4102 8.32422 20.4102 8.07422ZM30.582 24V11.3203H33.5352L33.7344 13.0781C33.8984 12.8438 34.0781 12.6289 34.2734 12.4336C34.4688 12.2383 34.6758 12.0625 34.8945 11.9062C35.2695 11.6406 35.6797 11.4375 36.125 11.2969C36.5703 11.1562 37.043 11.0859 37.543 11.0859C38.1836 11.0859 38.7695 11.1797 39.3008 11.3672C39.832 11.5547 40.293 11.8516 40.6836 12.2578C41.0664 12.6719 41.3633 13.2031 41.5742 13.8516C41.793 14.4922 41.9023 15.2734 41.9023 16.1953V24H38.6445V16.2422C38.6445 15.7422 38.5859 15.332 38.4688 15.0117C38.3594 14.6836 38.1992 14.4258 37.9883 14.2383C37.7773 14.0508 37.5234 13.9219 37.2266 13.8516C36.9297 13.7734 36.5938 13.7344 36.2188 13.7344C35.9062 13.7344 35.6172 13.7695 35.3516 13.8398C35.0938 13.9102 34.8633 14.0156 34.6602 14.1562C34.4961 14.2578 34.3477 14.3789 34.2148 14.5195C34.082 14.6602 33.9609 14.8164 33.8516 14.9883V24H30.582ZM52.918 24C52.8398 23.8438 52.7734 23.6641 52.7188 23.4609C52.6641 23.2578 52.6172 23.043 52.5781 22.8164C52.3984 23.0117 52.1914 23.1953 51.957 23.3672C51.7227 23.5391 51.4648 23.6875 51.1836 23.8125C50.8945 23.9453 50.5781 24.0469 50.2344 24.1172C49.8906 24.1953 49.5195 24.2344 49.1211 24.2344C48.4727 24.2344 47.875 24.1406 47.3281 23.9531C46.7891 23.7656 46.3242 23.5039 45.9336 23.168C45.543 22.832 45.2383 22.4336 45.0195 21.9727C44.8008 21.5039 44.6914 20.9961 44.6914 20.4492C44.6914 19.7461 44.8281 19.125 45.1016 18.5859C45.375 18.0391 45.7852 17.5898 46.332 17.2383C46.8242 16.918 47.4297 16.6758 48.1484 16.5117C48.875 16.3398 49.707 16.2539 50.6445 16.2539H52.4609V15.5039C52.4609 15.207 52.4141 14.9414 52.3203 14.707C52.2266 14.4648 52.0859 14.2578 51.8984 14.0859C51.7031 13.9062 51.457 13.7695 51.1602 13.6758C50.8711 13.5742 50.5312 13.5234 50.1406 13.5234C49.7969 13.5234 49.5 13.5664 49.25 13.6523C49 13.7305 48.7969 13.8438 48.6406 13.9922C48.5 14.125 48.3945 14.2852 48.3242 14.4727C48.2617 14.6602 48.2305 14.8672 48.2305 15.0938H44.9727C44.9727 14.5547 45.0898 14.043 45.3242 13.5586C45.5664 13.0742 45.918 12.6484 46.3789 12.2812C46.832 11.9141 47.3867 11.625 48.043 11.4141C48.707 11.1953 49.4648 11.0859 50.3164 11.0859C51.082 11.0859 51.793 11.1797 52.4492 11.3672C53.1133 11.5547 53.6875 11.832 54.1719 12.1992C54.6562 12.5664 55.0352 13.0312 55.3086 13.5938C55.582 14.1484 55.7188 14.793 55.7188 15.5273V20.9648C55.7188 21.6445 55.7617 22.207 55.8477 22.6523C55.9336 23.0977 56.0586 23.4805 56.2227 23.8008V24H52.918ZM49.8125 21.7148C50.1406 21.7148 50.4453 21.6758 50.7266 21.5977C51.0078 21.5195 51.2617 21.418 51.4883 21.293C51.7148 21.168 51.9102 21.0273 52.0742 20.8711C52.2383 20.707 52.3672 20.543 52.4609 20.3789V18.1992H50.7969C50.2891 18.1992 49.8555 18.25 49.4961 18.3516C49.1367 18.4453 48.8438 18.5781 48.6172 18.75C48.3906 18.9297 48.2227 19.1445 48.1133 19.3945C48.0039 19.6367 47.9492 19.9023 47.9492 20.1914C47.9492 20.418 47.9883 20.6289 48.0664 20.8242C48.1523 21.0117 48.2734 21.1719 48.4297 21.3047C48.5859 21.4297 48.7773 21.5312 49.0039 21.6094C49.2383 21.6797 49.5078 21.7148 49.8125 21.7148ZM59.4102 24V11.3203H62.3633L62.5625 13.0781C62.7266 12.8438 62.9062 12.6289 63.1016 12.4336C63.2969 12.2383 63.5039 12.0625 63.7227 11.9062C64.0977 11.6406 64.5078 11.4375 64.9531 11.2969C65.3984 11.1562 65.8711 11.0859 66.3711 11.0859C67.0117 11.0859 67.5977 11.1797 68.1289 11.3672C68.6602 11.5547 69.1211 11.8516 69.5117 12.2578C69.8945 12.6719 70.1914 13.2031 70.4023 13.8516C70.6211 14.4922 70.7305 15.2734 70.7305 16.1953V24H67.4727V16.2422C67.4727 15.7422 67.4141 15.332 67.2969 15.0117C67.1875 14.6836 67.0273 14.4258 66.8164 14.2383C66.6055 14.0508 66.3516 13.9219 66.0547 13.8516C65.7578 13.7734 65.4219 13.7344 65.0469 13.7344C64.7344 13.7344 64.4453 13.7695 64.1797 13.8398C63.9219 13.9102 63.6914 14.0156 63.4883 14.1562C63.3242 14.2578 63.1758 14.3789 63.043 14.5195C62.9102 14.6602 62.7891 14.8164 62.6797 14.9883V24H59.4102ZM79.4375 21.6328C79.7578 21.6328 80.0625 21.5859 80.3516 21.4922C80.6406 21.3984 80.8945 21.2656 81.1133 21.0938C81.332 20.9219 81.5 20.7148 81.6172 20.4727C81.7422 20.2305 81.7969 19.9609 81.7812 19.6641H84.8516C84.8672 20.3203 84.7305 20.9297 84.4414 21.4922C84.1602 22.0547 83.7734 22.5391 83.2812 22.9453C82.7891 23.3516 82.2148 23.6719 81.5586 23.9062C80.9102 24.1328 80.2227 24.2461 79.4961 24.2461C78.5117 24.2461 77.6484 24.082 76.9062 23.7539C76.1641 23.418 75.5469 22.9609 75.0547 22.3828C74.5547 21.8047 74.1758 21.1289 73.918 20.3555C73.668 19.5742 73.543 18.7383 73.543 17.8477V17.4961C73.543 16.6055 73.668 15.7734 73.918 15C74.168 14.2188 74.543 13.5391 75.043 12.9609C75.543 12.3828 76.1602 11.9258 76.8945 11.5898C77.6367 11.2539 78.4961 11.0859 79.4727 11.0859C80.2539 11.0859 80.9766 11.2031 81.6406 11.4375C82.3047 11.6719 82.8789 12 83.3633 12.4219C83.8398 12.8516 84.2109 13.3711 84.4766 13.9805C84.7422 14.582 84.8672 15.2578 84.8516 16.0078H81.7812C81.7969 15.6953 81.75 15.3984 81.6406 15.1172C81.5312 14.8359 81.3711 14.5938 81.1602 14.3906C80.9492 14.1875 80.6953 14.0273 80.3984 13.9102C80.1016 13.7852 79.7773 13.7227 79.4258 13.7227C78.9102 13.7227 78.4844 13.8281 78.1484 14.0391C77.8125 14.25 77.5469 14.5312 77.3516 14.8828C77.1484 15.2344 77.0039 15.6367 76.918 16.0898C76.8398 16.543 76.8008 17.0117 76.8008 17.4961V17.8477C76.8008 18.3398 76.8398 18.8164 76.918 19.2773C76.9961 19.7305 77.1367 20.1289 77.3398 20.4727C77.5352 20.8242 77.8008 21.1055 78.1367 21.3164C78.4805 21.5273 78.9141 21.6328 79.4375 21.6328ZM94.3906 24.2344C93.4141 24.2344 92.5273 24.0742 91.7305 23.7539C90.9336 23.4336 90.25 22.9961 89.6797 22.4414C89.1094 21.8945 88.668 21.25 88.3555 20.5078C88.0508 19.7578 87.8984 18.957 87.8984 18.1055V17.6367C87.8984 16.668 88.0508 15.7852 88.3555 14.9883C88.6602 14.1836 89.0859 13.4922 89.6328 12.9141C90.1797 12.3359 90.8281 11.8867 91.5781 11.5664C92.3281 11.2461 93.1445 11.0859 94.0273 11.0859C94.9414 11.0859 95.7539 11.2383 96.4648 11.543C97.1836 11.8398 97.793 12.2617 98.293 12.8086C98.7852 13.3555 99.1602 14.0156 99.418 14.7891C99.6758 15.5547 99.8047 16.4023 99.8047 17.332V18.7148H91.2031V18.75C91.3125 19.2578 91.4531 19.668 91.625 19.9805C91.7969 20.2852 92.0273 20.5625 92.3164 20.8125C92.6133 21.0703 92.9531 21.2695 93.3359 21.4102C93.7188 21.5508 94.1367 21.6211 94.5898 21.6211C95.2305 21.6211 95.8516 21.5 96.4531 21.2578C97.0547 21.0156 97.543 20.6523 97.918 20.168L99.5469 21.9258C99.1328 22.5117 98.4766 23.043 97.5781 23.5195C96.6797 23.9961 95.6172 24.2344 94.3906 24.2344ZM94.0039 13.7227C93.6367 13.7227 93.3008 13.7891 92.9961 13.9219C92.6914 14.0469 92.4258 14.2305 92.1992 14.4727C91.9648 14.7148 91.7695 15.0039 91.6133 15.3398C91.457 15.6758 91.3398 16.0508 91.2617 16.4648H96.6055V16.207C96.6055 15.8633 96.543 15.5391 96.418 15.2344C96.293 14.9297 96.1211 14.6641 95.9023 14.4375C95.6836 14.2188 95.4141 14.0469 95.0938 13.9219C94.7812 13.7891 94.418 13.7227 94.0039 13.7227ZM128.68 22.0078C128.469 22.2656 128.18 22.5273 127.812 22.793C127.445 23.0586 127.012 23.2969 126.512 23.5078C126.004 23.7266 125.438 23.9023 124.812 24.0352C124.188 24.168 123.516 24.2344 122.797 24.2344C122.172 24.2344 121.582 24.1602 121.027 24.0117C120.48 23.8711 119.977 23.6641 119.516 23.3906C119.062 23.1094 118.648 22.7656 118.273 22.3594C117.906 21.9531 117.594 21.4883 117.336 20.9648C117.039 20.3867 116.812 19.7344 116.656 19.0078C116.508 18.2812 116.434 17.4922 116.434 16.6406V14.3203C116.434 13.5078 116.508 12.7539 116.656 12.0586C116.805 11.3555 117.016 10.7188 117.289 10.1484C117.547 9.64062 117.844 9.18359 118.18 8.77734C118.523 8.37109 118.898 8.01953 119.305 7.72266C119.781 7.38672 120.301 7.13281 120.863 6.96094C121.426 6.78906 122.02 6.70312 122.645 6.70312C123.605 6.70312 124.441 6.82422 125.152 7.06641C125.871 7.30859 126.477 7.65625 126.969 8.10938C127.461 8.57031 127.844 9.12891 128.117 9.78516C128.398 10.4414 128.582 11.1797 128.668 12H125.457C125.402 11.5859 125.316 11.2188 125.199 10.8984C125.09 10.5781 124.938 10.3086 124.742 10.0898C124.523 9.84766 124.246 9.66797 123.91 9.55078C123.582 9.42578 123.188 9.36328 122.727 9.36328C122.477 9.36328 122.234 9.40234 122 9.48047C121.766 9.55859 121.547 9.67188 121.344 9.82031C121.078 10.0234 120.836 10.2891 120.617 10.6172C120.406 10.9453 120.23 11.332 120.09 11.7773C119.98 12.1211 119.895 12.5039 119.832 12.9258C119.777 13.3477 119.75 13.8047 119.75 14.2969V16.6406C119.75 17.2578 119.789 17.8203 119.867 18.3281C119.953 18.8359 120.07 19.2852 120.219 19.6758C120.312 19.9023 120.418 20.1133 120.535 20.3086C120.66 20.4961 120.797 20.6641 120.945 20.8125C121.195 21.0625 121.484 21.2539 121.812 21.3867C122.148 21.5117 122.527 21.5781 122.949 21.5859C123.207 21.5859 123.461 21.5664 123.711 21.5273C123.961 21.4883 124.195 21.4336 124.414 21.3633C124.633 21.293 124.824 21.2148 124.988 21.1289C125.16 21.0352 125.289 20.9375 125.375 20.8359L125.387 17.7422H122.562V15.2812H128.668L128.68 22.0078ZM140.586 11.0859C141.078 11.0859 141.531 11.1211 141.945 11.1914C142.367 11.2539 142.707 11.3242 142.965 11.4023L142.484 14.6484C142.055 14.5469 141.613 14.4727 141.16 14.4258C140.715 14.3711 140.289 14.3438 139.883 14.3438C139.461 14.3438 139.078 14.3828 138.734 14.4609C138.398 14.5312 138.098 14.6406 137.832 14.7891C137.512 14.9609 137.238 15.1797 137.012 15.4453C136.785 15.7109 136.598 16.0234 136.449 16.3828V24H133.191V11.3203H136.227L136.355 13.1133L136.379 13.3945C136.895 12.6758 137.512 12.1133 138.23 11.707C138.949 11.293 139.734 11.0859 140.586 11.0859ZM145.449 17.543C145.449 16.6211 145.582 15.7695 145.848 14.9883C146.113 14.1992 146.504 13.5156 147.02 12.9375C147.527 12.3594 148.148 11.9062 148.883 11.5781C149.625 11.25 150.473 11.0859 151.426 11.0859C152.379 11.0859 153.227 11.25 153.969 11.5781C154.711 11.9062 155.34 12.3594 155.855 12.9375C156.363 13.5156 156.75 14.1992 157.016 14.9883C157.281 15.7695 157.414 16.6211 157.414 17.543V17.7891C157.414 18.7188 157.281 19.5781 157.016 20.3672C156.75 21.1484 156.363 21.8281 155.855 22.4062C155.348 22.9844 154.723 23.4375 153.98 23.7656C153.238 24.0859 152.395 24.2461 151.449 24.2461C150.496 24.2461 149.645 24.0859 148.895 23.7656C148.152 23.4375 147.527 22.9844 147.02 22.4062C146.504 21.8281 146.113 21.1484 145.848 20.3672C145.582 19.5781 145.449 18.7188 145.449 17.7891V17.543ZM148.707 17.7891C148.707 18.3203 148.758 18.8203 148.859 19.2891C148.961 19.75 149.121 20.1523 149.34 20.4961C149.559 20.8477 149.84 21.125 150.184 21.3281C150.535 21.5312 150.957 21.6328 151.449 21.6328C151.926 21.6328 152.336 21.5312 152.68 21.3281C153.023 21.125 153.305 20.8477 153.523 20.4961C153.734 20.1523 153.891 19.75 153.992 19.2891C154.094 18.8203 154.145 18.3203 154.145 17.7891V17.543C154.145 17.0273 154.094 16.5391 153.992 16.0781C153.891 15.6172 153.734 15.2109 153.523 14.8594C153.305 14.5078 153.023 14.2305 152.68 14.0273C152.336 13.8242 151.918 13.7227 151.426 13.7227C150.941 13.7227 150.527 13.8242 150.184 14.0273C149.84 14.2305 149.559 14.5078 149.34 14.8594C149.121 15.2109 148.961 15.6172 148.859 16.0781C148.758 16.5391 148.707 17.0273 148.707 17.543V17.7891ZM161.246 24L158.973 11.3203H161.949L162.898 18.8555L163.051 20.0625L163.273 18.8555L164.645 11.3203H166.824L168.195 18.8203L168.418 20.0273L168.582 18.7969L169.52 11.3203H172.508L170.234 24H167.375L165.98 17.2266L165.711 15.9375L165.453 17.2266L164.105 24H161.246ZM180.699 8.21484V11.3203H185.434V13.7227H180.699V19.1719C180.699 19.6328 180.75 20.0195 180.852 20.332C180.961 20.6367 181.113 20.8789 181.309 21.0586C181.504 21.2461 181.738 21.3789 182.012 21.457C182.293 21.5352 182.605 21.5742 182.949 21.5742C183.199 21.5742 183.453 21.5625 183.711 21.5391C183.977 21.5156 184.23 21.4844 184.473 21.4453C184.707 21.4141 184.926 21.3789 185.129 21.3398C185.34 21.3008 185.52 21.2617 185.668 21.2227L185.984 23.4609C185.758 23.5938 185.492 23.7109 185.188 23.8125C184.883 23.9062 184.559 23.9844 184.215 24.0469C183.871 24.1094 183.512 24.1562 183.137 24.1875C182.77 24.2266 182.406 24.2461 182.047 24.2461C181.352 24.2461 180.719 24.1562 180.148 23.9766C179.586 23.7891 179.105 23.5 178.707 23.1094C178.301 22.7266 177.988 22.2383 177.77 21.6445C177.551 21.043 177.441 20.3242 177.441 19.4883V13.7227H174.547V11.3203H177.441V8.21484H180.699ZM192.395 13.0664C192.559 12.8242 192.738 12.6016 192.934 12.3984C193.137 12.1875 193.348 12.0039 193.566 11.8477C193.902 11.6055 194.273 11.418 194.68 11.2852C195.086 11.1523 195.516 11.0859 195.969 11.0859C196.633 11.0859 197.242 11.1875 197.797 11.3906C198.352 11.5859 198.828 11.8945 199.227 12.3164C199.625 12.7383 199.934 13.2812 200.152 13.9453C200.379 14.6016 200.492 15.3945 200.492 16.3242V24H197.234V16.3008C197.234 15.8477 197.176 15.457 197.059 15.1289C196.949 14.8008 196.789 14.5352 196.578 14.332C196.367 14.1289 196.113 13.9805 195.816 13.8867C195.52 13.7852 195.184 13.7344 194.809 13.7344C194.52 13.7344 194.25 13.7617 194 13.8164C193.75 13.8711 193.523 13.9531 193.32 14.0625C193.133 14.1562 192.961 14.2695 192.805 14.4023C192.656 14.5352 192.52 14.6836 192.395 14.8477V24H189.137V6H192.395V13.0664Z" fill="white" fill-opacity="0.7"/>
</svg>
