<svg width="202" height="30" viewBox="0 0 202 30" fill="none" xmlns="http://www.w3.org/2000/svg">
<path d="M19.6719 16.9336H12.3594V24H9.05469V6.9375H20.5859V9.62109H12.3594V14.2617H19.6719V16.9336ZM24.2422 11.3203H31.1445V21.3516H34.5781V24H24.2422V21.3516H27.8516V13.9805H24.2422V11.3203ZM27.6172 8.07422C27.6172 7.82422 27.6602 7.59375 27.7461 7.38281C27.8398 7.16406 27.9688 6.97656 28.1328 6.82031C28.2969 6.67187 28.4922 6.55469 28.7188 6.46875C28.9531 6.38281 29.2109 6.33984 29.4922 6.33984C30.0703 6.33984 30.5273 6.50391 30.8633 6.83203C31.207 7.15234 31.3789 7.56641 31.3789 8.07422C31.3789 8.58203 31.207 9 30.8633 9.32812C30.5273 9.64844 30.0703 9.80859 29.4922 9.80859C29.2109 9.80859 28.9531 9.76562 28.7188 9.67969C28.4922 9.59375 28.2969 9.47266 28.1328 9.31641C27.9688 9.16797 27.8398 8.98828 27.7461 8.77734C27.6602 8.55859 27.6172 8.32422 27.6172 8.07422ZM37.7891 24V11.3203H40.7422L40.9414 13.0781C41.1055 12.8438 41.2852 12.6289 41.4805 12.4336C41.6758 12.2383 41.8828 12.0625 42.1016 11.9062C42.4766 11.6406 42.8867 11.4375 43.332 11.2969C43.7773 11.1562 44.25 11.0859 44.75 11.0859C45.3906 11.0859 45.9766 11.1797 46.5078 11.3672C47.0391 11.5547 47.5 11.8516 47.8906 12.2578C48.2734 12.6719 48.5703 13.2031 48.7812 13.8516C49 14.4922 49.1094 15.2734 49.1094 16.1953V24H45.8516V16.2422C45.8516 15.7422 45.793 15.332 45.6758 15.0117C45.5664 14.6836 45.4062 14.4258 45.1953 14.2383C44.9844 14.0508 44.7305 13.9219 44.4336 13.8516C44.1367 13.7734 43.8008 13.7344 43.4258 13.7344C43.1133 13.7344 42.8242 13.7695 42.5586 13.8398C42.3008 13.9102 42.0703 14.0156 41.8672 14.1562C41.7031 14.2578 41.5547 14.3789 41.4219 14.5195C41.2891 14.6602 41.168 14.8164 41.0586 14.9883V24H37.7891ZM60.125 24C60.0469 23.8438 59.9805 23.6641 59.9258 23.4609C59.8711 23.2578 59.8242 23.043 59.7852 22.8164C59.6055 23.0117 59.3984 23.1953 59.1641 23.3672C58.9297 23.5391 58.6719 23.6875 58.3906 23.8125C58.1016 23.9453 57.7852 24.0469 57.4414 24.1172C57.0977 24.1953 56.7266 24.2344 56.3281 24.2344C55.6797 24.2344 55.082 24.1406 54.5352 23.9531C53.9961 23.7656 53.5312 23.5039 53.1406 23.168C52.75 22.832 52.4453 22.4336 52.2266 21.9727C52.0078 21.5039 51.8984 20.9961 51.8984 20.4492C51.8984 19.7461 52.0352 19.125 52.3086 18.5859C52.582 18.0391 52.9922 17.5898 53.5391 17.2383C54.0312 16.918 54.6367 16.6758 55.3555 16.5117C56.082 16.3398 56.9141 16.2539 57.8516 16.2539H59.668V15.5039C59.668 15.207 59.6211 14.9414 59.5273 14.707C59.4336 14.4648 59.293 14.2578 59.1055 14.0859C58.9102 13.9062 58.6641 13.7695 58.3672 13.6758C58.0781 13.5742 57.7383 13.5234 57.3477 13.5234C57.0039 13.5234 56.707 13.5664 56.457 13.6523C56.207 13.7305 56.0039 13.8438 55.8477 13.9922C55.707 14.125 55.6016 14.2852 55.5312 14.4727C55.4688 14.6602 55.4375 14.8672 55.4375 15.0938H52.1797C52.1797 14.5547 52.2969 14.043 52.5312 13.5586C52.7734 13.0742 53.125 12.6484 53.5859 12.2812C54.0391 11.9141 54.5938 11.625 55.25 11.4141C55.9141 11.1953 56.6719 11.0859 57.5234 11.0859C58.2891 11.0859 59 11.1797 59.6562 11.3672C60.3203 11.5547 60.8945 11.832 61.3789 12.1992C61.8633 12.5664 62.2422 13.0312 62.5156 13.5938C62.7891 14.1484 62.9258 14.793 62.9258 15.5273V20.9648C62.9258 21.6445 62.9688 22.207 63.0547 22.6523C63.1406 23.0977 63.2656 23.4805 63.4297 23.8008V24H60.125ZM57.0195 21.7148C57.3477 21.7148 57.6523 21.6758 57.9336 21.5977C58.2148 21.5195 58.4688 21.418 58.6953 21.293C58.9219 21.168 59.1172 21.0273 59.2812 20.8711C59.4453 20.707 59.5742 20.543 59.668 20.3789V18.1992H58.0039C57.4961 18.1992 57.0625 18.25 56.7031 18.3516C56.3438 18.4453 56.0508 18.5781 55.8242 18.75C55.5977 18.9297 55.4297 19.1445 55.3203 19.3945C55.2109 19.6367 55.1562 19.9023 55.1562 20.1914C55.1562 20.418 55.1953 20.6289 55.2734 20.8242C55.3594 21.0117 55.4805 21.1719 55.6367 21.3047C55.793 21.4297 55.9844 21.5312 56.2109 21.6094C56.4453 21.6797 56.7148 21.7148 57.0195 21.7148ZM66.6172 24V11.3203H69.5703L69.7695 13.0781C69.9336 12.8438 70.1133 12.6289 70.3086 12.4336C70.5039 12.2383 70.7109 12.0625 70.9297 11.9062C71.3047 11.6406 71.7148 11.4375 72.1602 11.2969C72.6055 11.1562 73.0781 11.0859 73.5781 11.0859C74.2188 11.0859 74.8047 11.1797 75.3359 11.3672C75.8672 11.5547 76.3281 11.8516 76.7188 12.2578C77.1016 12.6719 77.3984 13.2031 77.6094 13.8516C77.8281 14.4922 77.9375 15.2734 77.9375 16.1953V24H74.6797V16.2422C74.6797 15.7422 74.6211 15.332 74.5039 15.0117C74.3945 14.6836 74.2344 14.4258 74.0234 14.2383C73.8125 14.0508 73.5586 13.9219 73.2617 13.8516C72.9648 13.7734 72.6289 13.7344 72.2539 13.7344C71.9414 13.7344 71.6523 13.7695 71.3867 13.8398C71.1289 13.9102 70.8984 14.0156 70.6953 14.1562C70.5312 14.2578 70.3828 14.3789 70.25 14.5195C70.1172 14.6602 69.9961 14.8164 69.8867 14.9883V24H66.6172ZM86.6445 21.6328C86.9648 21.6328 87.2695 21.5859 87.5586 21.4922C87.8477 21.3984 88.1016 21.2656 88.3203 21.0938C88.5391 20.9219 88.707 20.7148 88.8242 20.4727C88.9492 20.2305 89.0039 19.9609 88.9883 19.6641H92.0586C92.0742 20.3203 91.9375 20.9297 91.6484 21.4922C91.3672 22.0547 90.9805 22.5391 90.4883 22.9453C89.9961 23.3516 89.4219 23.6719 88.7656 23.9062C88.1172 24.1328 87.4297 24.2461 86.7031 24.2461C85.7188 24.2461 84.8555 24.082 84.1133 23.7539C83.3711 23.418 82.7539 22.9609 82.2617 22.3828C81.7617 21.8047 81.3828 21.1289 81.125 20.3555C80.875 19.5742 80.75 18.7383 80.75 17.8477V17.4961C80.75 16.6055 80.875 15.7734 81.125 15C81.375 14.2188 81.75 13.5391 82.25 12.9609C82.75 12.3828 83.3672 11.9258 84.1016 11.5898C84.8438 11.2539 85.7031 11.0859 86.6797 11.0859C87.4609 11.0859 88.1836 11.2031 88.8477 11.4375C89.5117 11.6719 90.0859 12 90.5703 12.4219C91.0469 12.8516 91.418 13.3711 91.6836 13.9805C91.9492 14.582 92.0742 15.2578 92.0586 16.0078H88.9883C89.0039 15.6953 88.957 15.3984 88.8477 15.1172C88.7383 14.8359 88.5781 14.5938 88.3672 14.3906C88.1562 14.1875 87.9023 14.0273 87.6055 13.9102C87.3086 13.7852 86.9844 13.7227 86.6328 13.7227C86.1172 13.7227 85.6914 13.8281 85.3555 14.0391C85.0195 14.25 84.7539 14.5312 84.5586 14.8828C84.3555 15.2344 84.2109 15.6367 84.125 16.0898C84.0469 16.543 84.0078 17.0117 84.0078 17.4961V17.8477C84.0078 18.3398 84.0469 18.8164 84.125 19.2773C84.2031 19.7305 84.3438 20.1289 84.5469 20.4727C84.7422 20.8242 85.0078 21.1055 85.3438 21.3164C85.6875 21.5273 86.1211 21.6328 86.6445 21.6328ZM101.598 24.2344C100.621 24.2344 99.7344 24.0742 98.9375 23.7539C98.1406 23.4336 97.457 22.9961 96.8867 22.4414C96.3164 21.8945 95.875 21.25 95.5625 20.5078C95.2578 19.7578 95.1055 18.957 95.1055 18.1055V17.6367C95.1055 16.668 95.2578 15.7852 95.5625 14.9883C95.8672 14.1836 96.293 13.4922 96.8398 12.9141C97.3867 12.3359 98.0352 11.8867 98.7852 11.5664C99.5352 11.2461 100.352 11.0859 101.234 11.0859C102.148 11.0859 102.961 11.2383 103.672 11.543C104.391 11.8398 105 12.2617 105.5 12.8086C105.992 13.3555 106.367 14.0156 106.625 14.7891C106.883 15.5547 107.012 16.4023 107.012 17.332V18.7148H98.4102V18.75C98.5195 19.2578 98.6602 19.668 98.832 19.9805C99.0039 20.2852 99.2344 20.5625 99.5234 20.8125C99.8203 21.0703 100.16 21.2695 100.543 21.4102C100.926 21.5508 101.344 21.6211 101.797 21.6211C102.438 21.6211 103.059 21.5 103.66 21.2578C104.262 21.0156 104.75 20.6523 105.125 20.168L106.754 21.9258C106.34 22.5117 105.684 23.043 104.785 23.5195C103.887 23.9961 102.824 24.2344 101.598 24.2344ZM101.211 13.7227C100.844 13.7227 100.508 13.7891 100.203 13.9219C99.8984 14.0469 99.6328 14.2305 99.4062 14.4727C99.1719 14.7148 98.9766 15.0039 98.8203 15.3398C98.6641 15.6758 98.5469 16.0508 98.4688 16.4648H103.812V16.207C103.812 15.8633 103.75 15.5391 103.625 15.2344C103.5 14.9297 103.328 14.6641 103.109 14.4375C102.891 14.2188 102.621 14.0469 102.301 13.9219C101.988 13.7891 101.625 13.7227 101.211 13.7227ZM121.473 22.0078C121.262 22.2656 120.973 22.5273 120.605 22.793C120.238 23.0586 119.805 23.2969 119.305 23.5078C118.797 23.7266 118.23 23.9023 117.605 24.0352C116.98 24.168 116.309 24.2344 115.59 24.2344C114.965 24.2344 114.375 24.1602 113.82 24.0117C113.273 23.8711 112.77 23.6641 112.309 23.3906C111.855 23.1094 111.441 22.7656 111.066 22.3594C110.699 21.9531 110.387 21.4883 110.129 20.9648C109.832 20.3867 109.605 19.7344 109.449 19.0078C109.301 18.2812 109.227 17.4922 109.227 16.6406V14.3203C109.227 13.5078 109.301 12.7539 109.449 12.0586C109.598 11.3555 109.809 10.7188 110.082 10.1484C110.34 9.64062 110.637 9.18359 110.973 8.77734C111.316 8.37109 111.691 8.01953 112.098 7.72266C112.574 7.38672 113.094 7.13281 113.656 6.96094C114.219 6.78906 114.812 6.70312 115.438 6.70312C116.398 6.70312 117.234 6.82422 117.945 7.06641C118.664 7.30859 119.27 7.65625 119.762 8.10938C120.254 8.57031 120.637 9.12891 120.91 9.78516C121.191 10.4414 121.375 11.1797 121.461 12H118.25C118.195 11.5859 118.109 11.2188 117.992 10.8984C117.883 10.5781 117.73 10.3086 117.535 10.0898C117.316 9.84766 117.039 9.66797 116.703 9.55078C116.375 9.42578 115.98 9.36328 115.52 9.36328C115.27 9.36328 115.027 9.40234 114.793 9.48047C114.559 9.55859 114.34 9.67188 114.137 9.82031C113.871 10.0234 113.629 10.2891 113.41 10.6172C113.199 10.9453 113.023 11.332 112.883 11.7773C112.773 12.1211 112.688 12.5039 112.625 12.9258C112.57 13.3477 112.543 13.8047 112.543 14.2969V16.6406C112.543 17.2578 112.582 17.8203 112.66 18.3281C112.746 18.8359 112.863 19.2852 113.012 19.6758C113.105 19.9023 113.211 20.1133 113.328 20.3086C113.453 20.4961 113.59 20.6641 113.738 20.8125C113.988 21.0625 114.277 21.2539 114.605 21.3867C114.941 21.5117 115.32 21.5781 115.742 21.5859C116 21.5859 116.254 21.5664 116.504 21.5273C116.754 21.4883 116.988 21.4336 117.207 21.3633C117.426 21.293 117.617 21.2148 117.781 21.1289C117.953 21.0352 118.082 20.9375 118.168 20.8359L118.18 17.7422H115.355V15.2812H121.461L121.473 22.0078ZM133.379 11.0859C133.871 11.0859 134.324 11.1211 134.738 11.1914C135.16 11.2539 135.5 11.3242 135.758 11.4023L135.277 14.6484C134.848 14.5469 134.406 14.4727 133.953 14.4258C133.508 14.3711 133.082 14.3438 132.676 14.3438C132.254 14.3438 131.871 14.3828 131.527 14.4609C131.191 14.5312 130.891 14.6406 130.625 14.7891C130.305 14.9609 130.031 15.1797 129.805 15.4453C129.578 15.7109 129.391 16.0234 129.242 16.3828V24H125.984V11.3203H129.02L129.148 13.1133L129.172 13.3945C129.688 12.6758 130.305 12.1133 131.023 11.707C131.742 11.293 132.527 11.0859 133.379 11.0859ZM138.242 17.543C138.242 16.6211 138.375 15.7695 138.641 14.9883C138.906 14.1992 139.297 13.5156 139.812 12.9375C140.32 12.3594 140.941 11.9062 141.676 11.5781C142.418 11.25 143.266 11.0859 144.219 11.0859C145.172 11.0859 146.02 11.25 146.762 11.5781C147.504 11.9062 148.133 12.3594 148.648 12.9375C149.156 13.5156 149.543 14.1992 149.809 14.9883C150.074 15.7695 150.207 16.6211 150.207 17.543V17.7891C150.207 18.7188 150.074 19.5781 149.809 20.3672C149.543 21.1484 149.156 21.8281 148.648 22.4062C148.141 22.9844 147.516 23.4375 146.773 23.7656C146.031 24.0859 145.188 24.2461 144.242 24.2461C143.289 24.2461 142.438 24.0859 141.688 23.7656C140.945 23.4375 140.32 22.9844 139.812 22.4062C139.297 21.8281 138.906 21.1484 138.641 20.3672C138.375 19.5781 138.242 18.7188 138.242 17.7891V17.543ZM141.5 17.7891C141.5 18.3203 141.551 18.8203 141.652 19.2891C141.754 19.75 141.914 20.1523 142.133 20.4961C142.352 20.8477 142.633 21.125 142.977 21.3281C143.328 21.5312 143.75 21.6328 144.242 21.6328C144.719 21.6328 145.129 21.5312 145.473 21.3281C145.816 21.125 146.098 20.8477 146.316 20.4961C146.527 20.1523 146.684 19.75 146.785 19.2891C146.887 18.8203 146.938 18.3203 146.938 17.7891V17.543C146.938 17.0273 146.887 16.5391 146.785 16.0781C146.684 15.6172 146.527 15.2109 146.316 14.8594C146.098 14.5078 145.816 14.2305 145.473 14.0273C145.129 13.8242 144.711 13.7227 144.219 13.7227C143.734 13.7227 143.32 13.8242 142.977 14.0273C142.633 14.2305 142.352 14.5078 142.133 14.8594C141.914 15.2109 141.754 15.6172 141.652 16.0781C141.551 16.5391 141.5 17.0273 141.5 17.543V17.7891ZM154.039 24L151.766 11.3203H154.742L155.691 18.8555L155.844 20.0625L156.066 18.8555L157.438 11.3203H159.617L160.988 18.8203L161.211 20.0273L161.375 18.7969L162.312 11.3203H165.301L163.027 24H160.168L158.773 17.2266L158.504 15.9375L158.246 17.2266L156.898 24H154.039ZM173.492 8.21484V11.3203H178.227V13.7227H173.492V19.1719C173.492 19.6328 173.543 20.0195 173.645 20.332C173.754 20.6367 173.906 20.8789 174.102 21.0586C174.297 21.2461 174.531 21.3789 174.805 21.457C175.086 21.5352 175.398 21.5742 175.742 21.5742C175.992 21.5742 176.246 21.5625 176.504 21.5391C176.77 21.5156 177.023 21.4844 177.266 21.4453C177.5 21.4141 177.719 21.3789 177.922 21.3398C178.133 21.3008 178.312 21.2617 178.461 21.2227L178.777 23.4609C178.551 23.5938 178.285 23.7109 177.98 23.8125C177.676 23.9062 177.352 23.9844 177.008 24.0469C176.664 24.1094 176.305 24.1562 175.93 24.1875C175.562 24.2266 175.199 24.2461 174.84 24.2461C174.145 24.2461 173.512 24.1562 172.941 23.9766C172.379 23.7891 171.898 23.5 171.5 23.1094C171.094 22.7266 170.781 22.2383 170.562 21.6445C170.344 21.043 170.234 20.3242 170.234 19.4883V13.7227H167.34V11.3203H170.234V8.21484H173.492ZM185.188 13.0664C185.352 12.8242 185.531 12.6016 185.727 12.3984C185.93 12.1875 186.141 12.0039 186.359 11.8477C186.695 11.6055 187.066 11.418 187.473 11.2852C187.879 11.1523 188.309 11.0859 188.762 11.0859C189.426 11.0859 190.035 11.1875 190.59 11.3906C191.145 11.5859 191.621 11.8945 192.02 12.3164C192.418 12.7383 192.727 13.2812 192.945 13.9453C193.172 14.6016 193.285 15.3945 193.285 16.3242V24H190.027V16.3008C190.027 15.8477 189.969 15.457 189.852 15.1289C189.742 14.8008 189.582 14.5352 189.371 14.332C189.16 14.1289 188.906 13.9805 188.609 13.8867C188.312 13.7852 187.977 13.7344 187.602 13.7344C187.312 13.7344 187.043 13.7617 186.793 13.8164C186.543 13.8711 186.316 13.9531 186.113 14.0625C185.926 14.1562 185.754 14.2695 185.598 14.4023C185.449 14.5352 185.312 14.6836 185.188 14.8477V24H181.93V6H185.188V13.0664Z" fill="white" fill-opacity="0.7"/>
</svg>
